<svg xmlns="http://www.w3.org/2000/svg" viewBox="0 0 100 100" width="100" height="100">
  <defs>
    <linearGradient id="bg10" x1="0" y1="0" x2="100" y2="100">
      <stop offset="0%" stop-color="#1e1e3a"/>
      <stop offset="100%" stop-color="#15152a"/>
    </linearGradient>
  </defs>
  <rect width="100" height="100" rx="20" fill="url(#bg10)"/>
  <!-- Flag pole -->
  <line x1="35" y1="22" x2="35" y2="78" stroke="white" stroke-width="3.5" stroke-linecap="round"/>
  <!-- Base -->
  <line x1="22" y1="78" x2="48" y2="78" stroke="white" stroke-width="3.5" stroke-linecap="round"/>
  <!-- Flag -->
  <path d="M35 22 L68 32 L35 42" fill="none" stroke="white" stroke-width="3.5" stroke-linejoin="round"/>
  <!-- Goal/finish line -->
  <rect x="62" y="48" width="3" height="30" fill="white" rx="1"/>
  <!-- Checkered pattern -->
  <rect x="66" y="48" width="8" height="8" fill="white" rx="1"/>
  <rect x="74" y="48" width="8" height="8" fill="none" stroke="white" stroke-width="2" rx="1"/>
  <rect x="66" y="56" width="8" height="8" fill="none" stroke="white" stroke-width="2" rx="1"/>
  <rect x="74" y="56" width="8" height="8" fill="white" rx="1"/>
  <rect x="66" y="64" width="8" height="8" fill="white" rx="1"/>
  <rect x="74" y="64" width="8" height="8" fill="none" stroke="white" stroke-width="2" rx="1"/>
  <rect x="66" y="72" width="8" height="8" fill="none" stroke="white" stroke-width="2" rx="1"/>
  <rect x="74" y="72" width="8" height="8" fill="white" rx="1"/>
</svg>
